<?xml version="1.0" standalone="no"?>
<!DOCTYPE svg PUBLIC "-//W3C//DTD SVG 20010904//EN"
 "http://www.w3.org/TR/2001/REC-SVG-20010904/DTD/svg10.dtd">
<svg version="1.0" xmlns="http://www.w3.org/2000/svg"
 width="1000.000000pt" height="1000.000000pt" viewBox="0 0 1000.000000 1000.000000"
 preserveAspectRatio="xMidYMid meet">

<g transform="translate(0.000000,1000.000000) scale(0.100000,-0.100000)"
fill="#000000" stroke="none">
<path d="M4660 9989 c-880 -65 -1705 -346 -2425 -824 -1162 -772 -1947 -1989
-2169 -3365 -50 -304 -60 -442 -60 -800 0 -358 10 -496 60 -800 430 -2654
2885 -4493 5554 -4160 2201 275 3960 1971 4314 4160 39 237 56 422 62 680 41
1560 -652 3046 -1879 4028 -750 600 -1648 965 -2622 1067 -181 19 -662 27
-835 14z m1000 -1385 c22 -10 40 -21 40 -26 0 -4 6 -8 13 -8 8 0 24 -11 37
-25 13 -14 29 -25 36 -25 8 0 36 -20 64 -45 28 -25 57 -45 65 -45 8 0 45 -27
83 -60 39 -33 74 -60 79 -60 5 0 24 -14 42 -31 19 -17 57 -43 85 -59 28 -16
83 -58 121 -92 39 -35 83 -72 99 -83 101 -69 165 -116 200 -148 17 -16 63 -49
101 -74 39 -26 97 -70 130 -98 33 -29 84 -68 113 -88 28 -21 76 -53 105 -73
62 -44 130 -96 137 -105 8 -10 129 -102 162 -122 16 -9 54 -36 84 -60 31 -23
82 -60 115 -83 32 -23 83 -62 113 -88 30 -25 58 -46 63 -46 5 0 22 -14 39 -31
16 -17 66 -56 111 -85 45 -30 84 -58 87 -63 3 -5 58 -46 123 -92 64 -46 137
-103 162 -125 25 -23 65 -51 89 -63 23 -12 54 -35 69 -52 15 -16 50 -45 77
-65 28 -19 71 -50 96 -69 25 -19 55 -39 67 -44 11 -6 24 -15 28 -20 3 -6 30
-26 59 -45 50 -32 116 -103 116 -124 0 -5 7 -9 16 -8 9 0 24 -11 33 -25 9 -14
29 -45 44 -68 23 -34 26 -45 16 -57 -6 -8 -14 -47 -17 -87 -3 -52 -12 -85 -31
-120 -20 -36 -23 -49 -13 -55 9 -6 5 -12 -15 -23 -15 -8 -40 -26 -56 -40 -24
-23 -34 -25 -63 -19 -27 6 -44 3 -80 -16 -52 -28 -54 -28 -54 -11 0 16 -58 39
-66 25 -3 -5 -13 -7 -21 -4 -10 4 -13 2 -10 -6 3 -9 -6 -13 -27 -12 -17 0 -37
-4 -43 -9 -7 -5 -13 -6 -13 -3 0 4 -9 2 -19 -4 -14 -7 -22 -7 -26 0 -4 7 -11
7 -18 2 -20 -16 -109 -25 -117 -12 -5 8 -22 8 -66 0 -72 -14 -115 -19 -172
-21 -23 -1 -45 -6 -48 -11 -3 -5 -17 -13 -30 -18 -22 -9 -30 -29 -25 -67 1 -6
-9 -28 -21 -49 l-22 -37 27 5 c26 5 38 -9 43 -47 3 -25 17 -43 30 -38 8 3 14
0 14 -6 0 -6 -7 -11 -15 -11 -16 0 -20 -12 -8 -24 10 -10 11 -46 1 -46 -4 0
-8 11 -8 25 0 14 -4 25 -10 25 -5 0 -10 -9 -10 -19 0 -11 -8 -22 -18 -25 -10
-3 -23 -21 -30 -38 -9 -25 -15 -30 -21 -19 -5 7 -14 10 -20 7 -18 -11 -13 2 9
24 11 11 20 25 20 30 0 18 -19 10 -32 -12 l-12 -23 -6 24 c-5 22 -7 23 -22 8
-9 -10 -23 -14 -32 -11 -11 4 -13 0 -9 -18 3 -13 2 -20 -2 -16 -5 4 -15 2 -23
-5 -13 -10 -15 -9 -9 6 6 16 4 16 -20 -2 -14 -12 -34 -19 -43 -16 -9 3 -25 -2
-36 -10 -25 -19 -34 -19 -34 0 0 19 -10 19 -24 0 -9 -12 -18 -13 -43 -6 -23 7
-33 6 -33 -2 0 -6 -6 -2 -14 9 -13 16 -18 17 -36 6 -17 -10 -21 -10 -26 3 -4
8 -13 15 -22 15 -12 0 -13 3 -4 12 19 19 14 33 -6 15 -10 -10 -22 -14 -25 -10
-4 3 -7 2 -7 -4 0 -6 7 -13 15 -17 8 -3 15 -13 15 -23 0 -13 -3 -14 -12 -5
-16 16 -28 15 -28 0 0 -8 -13 -13 -32 -13 -37 0 -78 36 -78 68 0 16 -3 17 -14
8 -8 -7 -13 -23 -10 -37 3 -16 0 -24 -10 -24 -8 0 -17 -6 -19 -12 -3 -7 -6 -1
-6 14 -1 24 -21 53 -21 30 0 -11 -49 -34 -60 -27 -4 3 -10 -5 -13 -16 -5 -19
-10 -21 -44 -14 -21 4 -41 12 -44 17 -4 6 -14 8 -23 5 -21 -8 -20 12 2 29 18
14 5 19 -14 6 -16 -11 -24 -41 -13 -48 7 -4 6 -10 0 -18 -6 -7 -8 -16 -4 -19
3 -4 1 -7 -5 -7 -7 0 -12 5 -12 10 0 6 -7 10 -15 10 -8 0 -15 -4 -15 -9 0 -5
7 -11 15 -15 8 -3 15 -10 15 -15 0 -6 -6 -8 -13 -5 -8 3 -20 -2 -27 -11 -11
-13 -15 -13 -21 -3 -7 10 -9 9 -9 -4 0 -20 11 -23 26 -8 8 8 15 6 25 -6 9 -12
10 -15 2 -10 -24 14 -13 -10 21 -45 19 -19 43 -50 54 -69 11 -19 25 -34 31
-32 6 1 21 -7 33 -18 12 -11 28 -18 34 -16 12 5 84 -66 84 -82 0 -4 14 -15 30
-24 17 -9 30 -23 30 -31 0 -7 18 -24 41 -36 22 -13 43 -29 46 -37 3 -8 35 -34
72 -59 36 -25 91 -66 121 -91 30 -24 100 -78 155 -118 55 -41 118 -90 140
-109 22 -19 57 -46 79 -61 57 -38 166 -138 161 -146 -7 -11 -58 -19 -170 -25
-55 -3 -111 -7 -125 -10 -14 -3 -81 -9 -150 -15 -69 -6 -138 -13 -155 -15 -16
-3 -84 -7 -150 -10 -66 -4 -131 -9 -145 -11 -28 -6 -43 -8 -215 -23 -180 -17
-377 -42 -402 -52 -28 -10 -30 -35 -4 -44 10 -3 35 -21 54 -40 20 -19 39 -35
42 -35 3 0 31 -19 62 -42 30 -24 66 -49 78 -55 12 -7 30 -24 38 -37 9 -13 49
-45 89 -72 40 -26 89 -61 108 -78 20 -17 58 -49 84 -71 27 -22 54 -46 62 -53
7 -6 17 -12 22 -12 5 0 17 -10 28 -21 10 -12 31 -29 45 -38 14 -9 53 -40 87
-70 34 -30 75 -62 92 -73 18 -10 42 -30 54 -43 13 -14 28 -25 34 -25 6 0 13
-13 17 -29 6 -28 47 -57 66 -46 5 4 9 -1 9 -10 0 -12 6 -15 20 -10 13 4 20 2
20 -6 0 -7 3 -10 6 -6 4 3 26 -14 50 -39 l44 -45 -32 -31 c-24 -24 -29 -33
-18 -36 8 -3 19 -12 24 -20 6 -11 10 -12 16 -2 6 9 10 6 15 -9 3 -11 13 -21
20 -21 8 0 12 -8 10 -19 -2 -14 2 -17 21 -15 13 1 24 -2 24 -7 0 -5 -5 -9 -11
-9 -8 0 -8 -4 -1 -13 7 -8 7 -17 -2 -29 -11 -15 -15 -16 -32 -4 -15 12 -16 16
-5 30 17 20 5 21 -15 1 -11 -11 -14 -25 -9 -46 6 -24 4 -30 -6 -26 -8 2 -13
10 -12 16 2 6 -2 11 -7 11 -6 0 -10 -13 -10 -30 0 -16 -5 -30 -11 -30 -6 0 -9
6 -6 14 3 8 -1 20 -10 28 -13 11 -17 11 -21 0 -3 -10 -8 -10 -22 3 -22 20 -44
10 -37 -17 4 -12 1 -18 -6 -15 -7 2 -11 11 -9 19 1 9 -4 18 -13 22 -9 3 -15 0
-15 -9 0 -9 -10 -15 -26 -15 -19 0 -25 -4 -21 -15 5 -12 -3 -14 -43 -12 -28 1
-51 -2 -53 -7 -2 -5 -14 -3 -26 4 -21 11 -23 10 -17 -5 5 -15 2 -16 -21 -10
-16 3 -30 11 -31 16 -8 21 -22 -4 -15 -29 6 -25 5 -26 -10 -10 -9 9 -22 19
-29 21 -9 4 -8 10 6 21 16 13 17 19 8 28 -9 9 -12 9 -12 0 0 -7 -7 -12 -16
-12 -8 0 -23 -8 -32 -17 -16 -16 -16 -16 1 -10 11 4 17 2 17 -8 0 -8 -6 -15
-14 -15 -8 0 -22 -3 -32 -7 -12 -4 -15 -3 -10 5 4 7 3 12 -3 12 -5 0 -13 -5
-16 -10 -3 -6 -20 -10 -37 -10 -23 0 -29 -4 -24 -15 3 -10 -5 -20 -24 -30 -27
-14 -44 -5 -20 10 20 12 10 26 -11 15 -11 -7 -32 -9 -45 -6 -19 5 -22 3 -17
-10 5 -13 2 -15 -15 -9 -13 4 -22 2 -22 -4 0 -6 -7 -11 -15 -11 -8 0 -15 7
-15 15 0 8 -4 15 -9 15 -12 0 -32 -25 -26 -32 15 -15 -34 -30 -109 -34 -104
-5 -181 -34 -173 -64 6 -22 -27 -58 -38 -41 -11 18 -20 12 -33 -21 -8 -23 -9
-35 -1 -43 7 -7 8 -5 4 7 -5 13 -2 17 14 15 12 -1 21 -7 21 -13 0 -9 9 -10 36
-2 20 5 38 7 42 4 3 -3 -2 -6 -10 -6 -11 0 -14 -6 -11 -20 3 -12 0 -20 -6 -20
-7 0 -9 5 -6 10 3 5 2 10 -4 10 -6 0 -15 -10 -22 -21 -10 -19 -7 -25 20 -47
21 -16 31 -32 29 -46 -1 -11 1 -26 5 -32 7 -13 -37 -58 -51 -53 -6 2 -2 21 9
43 22 46 24 59 7 53 -7 -2 -12 -10 -10 -17 1 -6 -5 -10 -15 -8 -19 4 -25 35
-11 54 5 7 3 14 -7 18 -8 3 -15 12 -15 21 0 8 -5 15 -11 15 -6 0 -8 -7 -5 -17
5 -12 -3 -26 -26 -46 -18 -15 -26 -27 -18 -26 8 1 23 -1 33 -6 14 -6 16 -10 6
-16 -8 -4 -10 -11 -6 -15 4 -4 13 -2 19 4 7 7 16 12 20 12 12 0 9 -35 -4 -48
-9 -9 -9 -12 1 -12 11 0 11 -3 1 -15 -7 -8 -10 -21 -7 -29 8 -19 -21 -57 -41
-54 -12 2 -16 -3 -15 -17 1 -19 1 -19 -12 -1 -19 25 -31 14 -39 -34 -3 -22 -9
-40 -12 -40 -3 0 -23 14 -44 32 -43 34 -63 90 -40 111 10 9 11 7 6 -9 -4 -13
-1 -26 9 -34 21 -17 28 -7 20 28 -6 28 -9 30 -42 26 -44 -6 -66 -22 -58 -42 9
-23 -12 -40 -43 -34 -24 5 -26 4 -13 -11 7 -10 22 -17 32 -17 10 0 21 -5 24
-10 4 -7 -2 -9 -19 -4 -20 5 -26 2 -26 -10 0 -10 -12 -22 -28 -29 -18 -8 -26
-18 -24 -29 2 -12 -1 -16 -11 -13 -19 8 -14 50 6 49 9 -1 15 2 12 6 -3 4 2 10
10 14 8 3 15 11 15 17 0 8 -4 8 -12 2 -7 -5 -37 -9 -65 -8 -52 2 -68 -7 -37
-19 8 -3 12 -10 9 -16 -3 -6 1 -7 9 -4 12 4 16 0 16 -16 0 -13 -8 -24 -20 -27
-11 -3 -20 -10 -20 -15 0 -5 5 -6 11 -2 18 11 28 -16 17 -47 -7 -21 -5 -35 7
-59 17 -32 15 -47 -4 -36 -6 4 -8 13 -5 21 3 7 -4 18 -16 25 -12 6 -19 18 -16
25 3 9 0 12 -10 8 -10 -3 -12 0 -8 10 3 8 1 18 -5 22 -14 8 -14 45 -1 45 6 0
10 5 10 10 0 6 -12 10 -26 10 -14 0 -23 -4 -19 -10 3 -5 -2 -10 -12 -10 -22 0
-66 29 -45 30 7 0 10 5 7 10 -3 6 1 10 9 10 9 0 16 7 16 15 0 19 -14 19 -30 0
-7 -8 -21 -15 -32 -15 -11 0 -32 -9 -46 -21 -16 -12 -28 -16 -30 -10 -6 18
-22 12 -22 -7 0 -10 -5 -23 -11 -29 -7 -7 -9 -20 -5 -30 6 -15 9 -15 17 -3 7
10 9 11 7 2 -4 -15 -7 -15 -42 -6 -14 3 -23 11 -20 18 4 10 -6 12 -35 9 -37
-4 -41 -2 -41 18 0 16 3 19 13 11 13 -11 42 -11 53 1 4 4 -5 7 -19 7 -24 0
-27 4 -27 36 0 30 -2 34 -14 25 -11 -10 -17 -8 -25 6 -10 17 -10 17 -11 1 0
-10 4 -18 9 -18 13 0 21 -39 9 -46 -5 -3 -8 -15 -5 -25 3 -11 1 -16 -4 -13 -6
3 -16 1 -24 -6 -8 -7 -15 -7 -19 -1 -3 5 6 19 21 30 l28 21 -30 25 c-36 30
-45 31 -45 5 0 -12 7 -20 17 -20 13 0 14 -3 5 -12 -7 -7 -22 -13 -34 -13 -12
0 -23 -6 -25 -12 -3 -7 3 -13 11 -13 9 0 19 -6 22 -14 6 -15 -33 -86 -48 -86
-5 0 -6 5 -3 10 3 6 -5 10 -19 10 -18 0 -24 -4 -20 -15 6 -15 -7 -21 -20 -8
-11 11 -37 12 -62 3 -20 -8 -24 -6 -24 10 0 24 -32 27 -50 5 -7 -8 -21 -15
-31 -15 -10 0 -20 -4 -23 -9 -3 -4 -20 -12 -38 -16 -18 -4 -36 -9 -40 -10 -5
-1 -13 -3 -19 -4 -7 -1 -8 -13 -4 -32 4 -17 3 -34 -1 -38 -15 -10 -34 -50 -34
-68 0 -13 3 -14 12 -5 17 17 33 15 19 -2 -9 -11 -9 -15 1 -19 10 -3 9 -9 -4
-22 -15 -17 -19 -17 -56 -2 -43 17 -86 17 -104 -1 -7 -7 -17 -12 -23 -12 -5 0
-1 7 9 15 19 14 19 15 -7 15 -15 0 -27 -4 -27 -10 0 -5 -11 -10 -25 -10 -14 0
-25 5 -25 10 0 6 -10 2 -22 -9 -20 -19 -22 -19 -34 -3 -17 22 -17 33 0 26 7
-3 16 2 19 10 4 10 1 16 -7 16 -8 0 -17 8 -21 17 -11 28 -15 74 -6 69 9 -6 -2
74 -13 92 -4 7 -2 12 3 12 6 0 11 -4 11 -10 0 -5 5 -10 10 -10 6 0 10 9 10 21
0 11 -4 17 -10 14 -6 -3 -10 -1 -10 5 0 8 9 10 28 5 25 -6 26 -5 8 8 -19 14
-19 15 2 26 12 6 22 8 22 4 1 -4 7 3 15 17 8 14 14 19 15 13 0 -7 7 -13 16
-13 11 0 14 6 9 23 -6 19 -3 18 19 -8 25 -29 26 -29 41 -11 8 11 18 17 21 13
4 -4 -4 -15 -17 -26 -13 -11 -19 -20 -13 -21 17 0 51 33 55 55 3 12 14 21 27
23 26 4 24 28 -2 26 -9 -1 -16 3 -16 8 0 13 -26 38 -39 38 -9 0 -16 37 -12 63
1 4 -6 10 -14 13 -22 9 -18 24 5 24 17 0 19 4 14 27 -10 41 -12 43 -50 40 -45
-3 -44 -17 2 -17 23 0 33 -4 28 -11 -3 -6 0 -15 7 -20 12 -7 11 -9 -1 -9 -9 0
-22 6 -28 12 -10 10 -15 10 -22 -2 -5 -8 -6 -18 -4 -22 3 -4 1 -8 -5 -8 -5 0
-11 7 -13 16 -2 11 -17 17 -50 20 -27 2 -48 -1 -48 -6 0 -6 -5 -10 -11 -10 -6
0 -8 7 -5 16 9 24 -3 36 -21 19 -14 -14 -17 -14 -32 0 -10 8 -23 15 -29 15
-17 0 -15 40 3 46 12 5 8 12 -15 34 -17 15 -30 36 -30 45 0 14 5 12 26 -10 14
-15 28 -24 32 -20 4 4 1 10 -5 12 -18 6 -16 21 3 25 29 6 -16 44 -48 40 -31
-4 -36 5 -13 22 19 14 8 28 -30 42 -16 6 -29 16 -28 22 4 16 -24 15 -30 0 -3
-8 -6 -5 -6 6 -1 13 -6 17 -20 13 -15 -3 -19 0 -18 14 1 11 5 19 9 19 4 0 8 7
8 16 0 12 -3 14 -13 6 -10 -9 -17 -4 -31 18 -9 17 -21 30 -27 30 -5 0 -2 -11
6 -24 9 -14 12 -27 7 -30 -11 -6 -25 9 -35 37 -8 23 -39 22 -67 -3 -24 -21
-46 -27 -35 -10 3 6 2 10 -4 10 -5 0 -11 -5 -13 -11 -3 -8 -11 -5 -22 7 -16
16 -20 16 -30 3 -12 -15 -46 -14 -46 2 0 5 -5 9 -11 9 -6 0 -9 -7 -5 -15 3 -8
1 -15 -4 -15 -6 0 -10 4 -10 9 0 5 -9 11 -20 14 -11 3 -20 1 -20 -4 0 -5 5 -9
10 -9 6 0 10 -7 10 -15 0 -9 -6 -12 -15 -9 -12 5 -14 -1 -11 -25 2 -17 -1 -31
-6 -31 -5 0 -14 -13 -19 -30 -6 -16 -17 -30 -25 -30 -8 0 -14 -7 -14 -15 0 -8
-4 -16 -10 -16 -5 -1 -14 -2 -20 -3 -5 0 -17 -11 -26 -24 -9 -13 -22 -21 -30
-18 -8 3 -14 2 -14 -3 0 -13 -56 -71 -68 -71 -7 0 -12 -4 -12 -10 0 -5 -15
-17 -32 -25 -18 -9 -53 -27 -78 -41 -34 -19 -54 -23 -82 -19 -29 4 -38 2 -38
-9 0 -20 -47 -49 -53 -33 -4 8 -8 8 -14 2 -14 -17 -36 -17 -30 0 4 8 2 15 -3
15 -6 0 -10 -9 -10 -20 0 -21 -24 -28 -35 -10 -4 6 -11 8 -16 5 -5 -4 -15 -3
-22 2 -6 4 -14 8 -17 9 -28 5 -40 19 -34 38 7 21 6 21 -15 2 -11 -11 -21 -15
-22 -10 -3 49 -12 81 -26 96 -15 17 -15 21 -3 29 8 5 25 7 38 4 12 -3 22 -1
22 5 0 5 -6 10 -12 11 -7 0 -2 5 12 11 14 6 32 10 40 9 10 -1 8 5 -7 17 -24
21 -21 32 8 32 11 0 21 -10 25 -25 3 -14 11 -25 16 -25 6 0 8 7 5 15 -4 8 -2
17 4 20 5 4 12 -1 15 -9 3 -9 10 -16 15 -16 13 0 -2 63 -18 77 -8 6 -10 14 -5
17 12 7 52 -22 52 -40 0 -18 14 -18 30 1 10 12 10 15 -3 15 -9 0 -19 5 -22 10
-4 6 -3 10 2 9 27 -5 43 3 43 21 0 11 2 20 4 20 2 0 12 3 20 6 12 5 15 2 9
-11 -5 -15 -2 -17 16 -12 12 3 38 -1 57 -9 31 -13 34 -13 34 2 0 10 5 14 15
10 17 -6 21 19 5 29 -6 3 -10 12 -10 18 0 7 9 1 19 -12 l19 -24 13 24 c15 28
20 47 20 71 0 10 6 19 12 19 7 1 26 3 42 6 17 2 60 5 97 6 38 1 68 5 68 8 0 8
96 3 109 -6 6 -3 14 0 17 9 3 8 13 15 22 15 9 0 36 3 60 6 25 4 42 2 42 -4 0
-5 17 -3 38 6 20 9 62 19 92 22 39 4 56 11 58 22 3 19 -30 53 -80 83 -56 33
-304 224 -355 273 -12 12 -31 24 -42 28 -10 3 -21 15 -24 26 -3 11 -11 18 -19
17 -9 -2 -12 7 -11 31 1 24 -1 30 -8 20 -7 -11 -9 -11 -9 4 0 20 -4 21 -31 5
-18 -11 -23 -10 -42 13 -12 14 -30 29 -40 32 -10 4 -17 12 -16 19 3 25 -1 39
-10 34 -4 -3 -16 3 -26 14 -14 15 -21 17 -32 9 -8 -7 -13 -8 -13 -1 0 5 -10
12 -21 15 -15 4 -20 11 -16 21 5 11 0 16 -15 16 -18 0 -19 2 -7 17 12 15 12
16 -3 10 -10 -3 -20 -2 -23 3 -3 5 -12 7 -19 4 -8 -3 -23 7 -34 21 -12 15 -25
24 -30 21 -11 -6 -52 21 -52 35 0 14 -70 79 -85 79 -8 0 -20 6 -27 12 -7 7
-22 15 -33 16 -11 2 -21 8 -23 12 -2 5 -31 22 -65 38 -34 17 -84 50 -111 73
-43 38 -48 46 -43 76 4 20 2 31 -4 28 -5 -4 -9 -13 -9 -21 0 -19 -8 -18 -47 9
-18 12 -33 30 -33 39 0 11 -5 15 -14 12 -8 -3 -19 3 -26 15 -6 12 -18 21 -28
22 -10 0 -12 3 -5 6 7 2 16 4 19 3 13 -3 34 63 28 84 -6 19 -5 20 11 6 17 -14
18 -13 13 8 -4 14 -2 22 7 22 7 0 15 5 17 11 2 6 35 12 72 15 38 2 83 10 100
17 17 8 64 15 104 16 40 0 79 4 85 8 6 4 48 10 92 14 183 16 427 41 525 54 58
8 125 17 150 19 124 13 145 27 90 59 -16 10 -75 53 -131 95 -56 42 -109 82
-118 87 -9 6 -50 37 -91 71 -41 33 -84 66 -96 72 -12 6 -36 25 -55 41 -19 16
-48 40 -66 53 -50 36 -149 109 -203 151 -27 20 -53 37 -57 37 -5 0 -14 9 -21
20 -7 11 -17 20 -23 20 -6 0 -29 14 -51 31 -43 35 -108 80 -262 184 -54 37
-115 82 -135 100 -20 18 -60 47 -88 65 -29 17 -53 35 -53 39 0 4 -15 19 -34
32 -35 25 -214 181 -197 172 2 -2 9 2 16 7 6 5 34 11 61 14 60 4 305 32 429
47 105 14 115 15 255 28 58 5 157 15 220 22 63 6 144 13 180 15 36 2 102 11
148 20 68 13 81 19 71 30 -9 11 -7 14 9 14 11 0 22 -6 25 -12 2 -7 6 -1 9 14
4 22 1 29 -16 34 -12 4 -37 23 -56 44 -39 42 -114 84 -135 76 -9 -3 -12 0 -8
10 8 21 -25 54 -54 54 -12 0 -23 4 -23 8 0 5 -24 21 -54 36 -30 15 -56 36 -59
47 -3 13 -11 17 -21 13 -10 -4 -16 -1 -16 9 0 12 -9 14 -42 10 -36 -5 -41 -4
-35 11 5 12 -2 27 -22 46 -28 29 -44 31 -34 4 4 -10 0 -12 -11 -8 -17 7 -22
44 -6 44 6 0 10 7 10 16 0 10 -5 14 -16 10 -8 -3 -13 -2 -10 3 6 10 -53 48
-81 53 -10 2 -24 11 -32 21 -9 12 -21 17 -36 13 -16 -4 -25 1 -35 19 -8 15
-22 25 -35 25 -15 0 -26 9 -35 29 -9 22 -16 27 -32 23 -17 -4 -20 -2 -15 13 6
14 3 16 -13 12 -13 -3 -20 0 -20 9 0 8 -8 14 -18 14 -9 0 -28 14 -42 30 -14
17 -32 30 -42 30 -9 0 -23 9 -31 21 -11 15 -16 17 -20 7 -4 -8 -8 -5 -13 10
-5 19 -12 23 -34 20 -18 -3 -26 0 -24 7 3 7 -2 18 -11 25 -8 7 -15 19 -15 27
0 9 -6 13 -15 9 -8 -3 -15 -1 -15 4 0 6 -13 10 -29 10 -17 0 -33 5 -36 10 -3
6 -17 7 -30 4 -12 -3 -26 -1 -29 5 -10 16 -19 14 -46 -11 -16 -15 -25 -18 -28
-10 -5 17 -29 15 -36 -4 -4 -11 -13 -14 -31 -10 -14 4 -25 2 -25 -3 0 -6 -7
-8 -16 -4 -11 4 -12 9 -5 16 7 7 7 15 0 24 -9 10 -5 15 15 23 25 9 36 30 17
30 -5 0 -8 25 -7 55 2 40 -1 55 -11 55 -7 0 -13 7 -13 16 0 9 -9 27 -20 42
-13 16 -17 28 -10 32 6 4 8 14 4 23 -3 9 -10 15 -14 12 -11 -7 -67 49 -75 75
-8 24 7 40 37 40 9 0 20 5 23 10 4 6 10 8 15 5 10 -6 40 4 40 15 0 4 -11 20
-24 35 -14 16 -24 31 -23 34 1 3 -7 15 -18 26 -14 14 -36 21 -72 22 -31 2 -66
11 -85 23 -18 11 -40 23 -48 27 -22 10 -39 35 -40 58 -1 11 -4 14 -7 8 -7 -18
-23 -16 -23 2 0 8 -7 15 -16 15 -8 0 -12 5 -9 10 8 13 -16 13 -50 0 -17 -7
-24 -7 -20 0 3 6 2 10 -3 10 -6 0 -8 9 -5 19 4 16 0 19 -21 17 -14 -2 -31 3
-36 10 -6 7 -33 15 -61 19 -33 5 -49 12 -49 21 0 9 -8 14 -17 12 -12 -2 -18 3
-17 15 1 11 -5 17 -21 17 -12 0 -28 7 -36 16 -7 8 -26 22 -42 31 -16 8 -39 25
-51 38 -20 22 -26 25 -44 25 -5 0 -26 16 -48 35 -21 19 -46 37 -54 40 -8 3
-24 18 -35 34 -14 22 -23 27 -32 19 -9 -7 -14 -6 -19 6 -3 9 -12 16 -20 16 -8
0 -14 4 -14 10 0 5 -12 13 -26 16 -16 4 -23 12 -20 20 3 8 2 14 -2 14 -12 0
-67 53 -87 83 -9 15 -24 27 -31 27 -8 0 -14 8 -14 19 0 12 -9 20 -27 24 -26 5
-28 9 -30 61 -2 46 2 58 19 70 18 13 19 18 8 50 -6 20 -16 36 -21 36 -22 0 -6
32 21 41 31 11 36 26 31 92 -2 24 1 27 29 27 22 0 41 9 62 31 17 16 36 28 43
25 14 -5 86 14 95 24 14 17 74 30 155 34 50 2 101 7 115 10 14 4 108 13 210
21 347 28 525 45 573 55 27 5 79 10 115 10 37 0 96 5 132 11 81 13 111 16 280
29 74 5 212 17 305 25 94 9 238 20 320 25 83 5 188 14 235 20 47 6 119 13 160
15 41 2 134 8 205 15 72 6 186 15 255 20 69 5 179 14 245 20 66 5 158 12 205
15 47 3 130 10 185 15 223 21 286 20 345 -6z m-3140 -1584 c0 -5 -2 -10 -4
-10 -3 0 -8 5 -11 10 -3 6 -1 10 4 10 6 0 11 -4 11 -10z m30 0 c0 -5 -5 -10
-11 -10 -5 0 -7 5 -4 10 3 6 8 10 11 10 2 0 4 -4 4 -10z m81 -463 c-8 -8 -11
-7 -11 4 0 20 13 34 18 19 3 -7 -1 -17 -7 -23z m299 -102 c0 -8 -4 -15 -10
-15 -5 0 -10 7 -10 15 0 8 5 15 10 15 6 0 10 -7 10 -15z m780 -555 c0 -5 -4
-10 -10 -10 -5 0 -10 5 -10 10 0 6 5 10 10 10 6 0 10 -4 10 -10z m4354 -595
c-4 -10 0 -15 15 -15 15 0 21 -6 20 -22 -1 -17 -2 -19 -6 -5 -8 31 -22 18 -18
-18 5 -36 -2 -44 -23 -23 -9 9 -12 8 -12 -7 0 -15 -3 -16 -12 -7 -7 7 -21 12
-32 12 -16 1 -13 4 12 15 30 13 44 35 22 35 -5 0 -10 5 -10 10 0 6 7 10 15 10
9 0 12 6 9 15 -4 9 0 15 10 15 10 0 13 -6 10 -15z m-210 -86 c-8 -14 -21 -11
-21 5 0 8 6 12 14 9 7 -3 10 -9 7 -14z m-664 -39 c0 -5 -9 -10 -21 -10 -11 0
-17 5 -14 10 3 6 13 10 21 10 8 0 14 -4 14 -10z m-175 -81 c4 -6 5 -12 2 -15
-7 -7 -37 7 -37 17 0 13 27 11 35 -2z m97 -181 c-7 -7 -12 -8 -12 -2 0 14 12
26 19 19 2 -3 -1 -11 -7 -17z m418 -2319 c0 -6 -4 -7 -10 -4 -5 3 -10 11 -10
16 0 6 5 7 10 4 6 -3 10 -11 10 -16z m-3620 -119 c0 -11 -7 -20 -15 -20 -13 0
-14 4 -5 20 6 11 13 20 15 20 3 0 5 -9 5 -20z m-40 -34 c0 -9 -10 -13 -25 -12
-29 1 -33 12 -7 19 29 8 32 7 32 -7z m863 -101 c12 5 14 2 10 -14 -7 -26 -18
-27 -33 -3 -8 12 -13 13 -16 5 -8 -18 -24 -16 -24 3 0 8 4 13 9 9 5 -3 13 0
17 6 5 8 8 8 14 0 3 -7 14 -9 23 -6z m1967 -25 c0 -5 -4 -10 -10 -10 -5 0 -10
5 -10 10 0 6 5 10 10 10 6 0 10 -4 10 -10z m-1885 -30 c3 -5 2 -10 -4 -10 -5
0 -13 5 -16 10 -3 6 -2 10 4 10 5 0 13 -4 16 -10z m-1278 -22 c-3 -8 -6 -5 -6
6 -1 11 2 17 5 13 3 -3 4 -12 1 -19z m3133 -4 c0 -8 -4 -14 -10 -14 -5 0 -10
9 -10 21 0 11 5 17 10 14 6 -3 10 -13 10 -21z m-1912 -15 c-3 -8 -7 -3 -11 10
-4 17 -3 21 5 13 5 -5 8 -16 6 -23z m1817 -19 c3 -5 -1 -10 -9 -10 -9 0 -16 5
-16 10 0 6 4 10 9 10 6 0 13 -4 16 -10z m-1791 -115 c-4 -8 -8 -15 -10 -15 -2
0 -4 7 -4 15 0 8 4 15 10 15 5 0 7 -7 4 -15z m76 -20 c6 -8 9 -19 5 -25 -7
-11 -34 15 -35 33 0 12 17 8 30 -8z m76 -32 c-10 -10 -19 5 -10 18 6 11 8 11
12 0 2 -7 1 -15 -2 -18z m1414 -23 c0 -5 -4 -10 -10 -10 -5 0 -10 5 -10 10 0
6 5 10 10 10 6 0 10 -4 10 -10z m-1598 -44 c12 -17 9 -26 -6 -20 -8 3 -17 1
-21 -5 -4 -7 4 -11 19 -11 25 0 33 -10 20 -23 -8 -7 -54 13 -54 25 0 20 -17 5
-25 -24 -13 -41 -28 -45 -43 -13 -9 20 -9 25 0 19 7 -5 9 -2 6 8 -4 10 4 19
28 28 22 9 33 19 29 28 -4 10 1 12 18 6 12 -4 25 -12 29 -18z m1601 4 c6 -23
-3 -26 -21 -8 -16 16 -15 28 2 28 7 0 16 -9 19 -20z m-1486 -32 c-3 -8 -6 -5
-6 6 -1 11 2 17 5 13 3 -3 4 -12 1 -19z m270 -35 c13 -19 12 -23 -4 -32 -12
-6 -25 -6 -34 0 -11 7 -11 9 4 9 9 0 17 7 17 15 0 8 -4 15 -10 15 -5 0 -10 5
-10 11 0 16 21 6 37 -18z m-107 -3 c0 -11 -4 -20 -9 -20 -7 0 -8 17 -2 38 4
10 11 -2 11 -18z m1358 8 c-3 -7 -15 -15 -28 -16 -21 -3 -22 -2 -11 12 16 19
44 21 39 4z m-1298 -12 c0 -3 -4 -8 -10 -11 -5 -3 -10 -1 -10 4 0 6 5 11 10
11 6 0 10 -2 10 -4z m-354 -42 c4 -17 2 -29 -7 -35 -22 -14 -33 -10 -19 6 10
12 10 19 2 27 -8 8 -14 5 -20 -12 -10 -28 -23 -13 -15 18 8 33 51 30 59 -4z
m1268 -9 c3 -8 1 -15 -4 -15 -6 0 -10 7 -10 15 0 8 2 15 4 15 2 0 6 -7 10 -15z
m249 -10 c-7 -21 -13 -19 -13 6 0 11 4 18 10 14 5 -3 7 -12 3 -20z m-1344 -16
c-6 -12 -13 -18 -16 -15 -3 3 -1 12 5 19 7 8 8 18 4 22 -4 5 -1 5 6 1 9 -5 9
-12 1 -27z m1041 17 c0 -3 -4 -8 -10 -11 -5 -3 -10 -1 -10 4 0 6 5 11 10 11 6
0 10 -2 10 -4z m390 0 c0 -2 -7 -7 -16 -10 -8 -3 -12 -2 -9 4 6 10 25 14 25 6z
m-254 -53 c-8 -9 -37 18 -30 28 3 5 12 2 21 -6 8 -9 13 -19 9 -22z m164 8 c0
-16 -27 -31 -44 -25 -19 7 -22 40 -3 47 14 5 47 -10 47 -22z m-457 12 c-7 -2
-19 -2 -25 0 -7 3 -2 5 12 5 14 0 19 -2 13 -5z m-1053 -13 c0 -5 -4 -10 -10
-10 -5 0 -10 5 -10 10 0 6 5 10 10 10 6 0 10 -4 10 -10z m995 0 c-3 -5 -10
-10 -16 -10 -5 0 -9 5 -9 10 0 6 7 10 16 10 8 0 12 -4 9 -10z m-840 -10 c3 -5
-1 -10 -9 -10 -9 0 -16 5 -16 10 0 6 4 10 9 10 6 0 13 -4 16 -10z m-91 -86 c8
-21 -7 -17 -21 6 -11 16 -10 18 1 14 8 -3 17 -12 20 -20z m99 7 c7 -26 -2 -33
-19 -16 -8 8 -21 12 -29 9 -8 -4 -15 -1 -15 6 0 6 4 9 8 6 4 -2 14 -1 22 5 22
13 27 11 33 -10z m754 13 c-3 -3 -12 -4 -19 -1 -8 3 -5 6 6 6 11 1 17 -2 13
-5z m463 -29 c0 -8 -4 -15 -10 -15 -5 0 -10 7 -10 15 0 8 5 15 10 15 6 0 10
-7 10 -15z m-1272 -38 c5 -24 -15 -21 -21 4 -3 13 -1 19 6 16 7 -2 13 -11 15
-20z m2 -59 c0 -6 -6 -5 -15 2 -8 7 -15 14 -15 16 0 2 7 1 15 -2 8 -4 15 -11
15 -16z m50 -18 c0 -5 -5 -10 -11 -10 -5 0 -7 5 -4 10 3 6 8 10 11 10 2 0 4
-4 4 -10z m-105 -58 c5 -64 3 -62 43 -62 l37 1 -35 15 c-25 11 -31 17 -21 23
8 6 11 16 6 31 -6 19 -5 21 13 11 25 -13 37 -31 22 -31 -6 0 -8 -5 -4 -11 3
-6 16 -8 28 -5 31 8 53 -8 38 -27 -10 -11 -7 -18 13 -33 14 -10 25 -23 25 -28
0 -4 -16 4 -35 18 -30 23 -37 25 -55 14 -23 -15 -27 -30 -5 -22 8 4 15 1 15
-5 0 -6 -11 -11 -24 -11 -14 0 -28 -4 -31 -10 -8 -13 -35 -13 -35 0 0 6 10 15
23 20 21 8 21 9 -6 9 -16 1 -26 -3 -22 -9 3 -5 1 -10 -5 -10 -6 0 -15 -12 -20
-26 -6 -14 -14 -22 -20 -19 -12 8 -13 42 -1 49 4 3 6 17 3 31 -3 21 0 27 17
32 11 3 18 9 15 14 -7 12 6 72 14 64 4 -3 7 -14 7 -23z m367 -24 c-7 -7 -12
-8 -12 -2 0 14 12 26 19 19 2 -3 -1 -11 -7 -17z m43 2 c3 -5 1 -10 -4 -10 -6
0 -11 5 -11 10 0 6 2 10 4 10 3 0 8 -4 11 -10z m29 -15 c-4 -8 -11 -15 -16
-15 -6 0 -5 6 2 15 7 8 14 15 16 15 2 0 1 -7 -2 -15z m-497 -11 c-3 -3 -12 -4
-19 -1 -8 3 -5 6 6 6 11 1 17 -2 13 -5z m305 -19 c0 -5 -5 -11 -11 -13 -6 -2
-11 4 -11 13 0 9 5 15 11 13 6 -2 11 -8 11 -13z m-328 -60 c-8 -34 -38 -34
-32 0 3 14 1 25 -3 25 -5 0 -9 5 -9 11 0 5 4 8 9 4 5 -3 13 0 17 6 11 19 25
-17 18 -46z m-70 30 c11 -8 16 -18 12 -22 -4 -4 -11 -2 -15 6 -5 7 -12 12 -17
11 -5 -1 -10 3 -12 9 -5 15 9 13 32 -4z m376 -10 c0 -8 -4 -15 -10 -15 -5 0
-10 7 -10 15 0 8 5 15 10 15 6 0 10 -7 10 -15z m-90 -11 c0 -8 -19 -13 -24 -6
-3 5 1 9 9 9 8 0 15 -2 15 -3z m-90 -38 c0 -11 -19 -15 -25 -6 -3 5 1 10 9 10
9 0 16 -2 16 -4z m73 -23 c-7 -2 -19 -2 -25 0 -7 3 -2 5 12 5 14 0 19 -2 13
-5z m7 -43 c0 -5 -4 -10 -10 -10 -5 0 -10 5 -10 10 0 6 5 10 10 10 6 0 10 -4
10 -10z m-120 -44 c-14 -14 -24 0 -16 21 6 15 8 15 16 3 6 -9 5 -19 0 -24z
m150 30 c0 -2 -7 -9 -15 -16 -13 -11 -14 -10 -9 4 5 14 24 23 24 12z"/>
<path d="M3312 6218 c3 -7 13 -15 24 -17 16 -3 17 -1 5 13 -16 19 -34 21 -29
4z"/>
<path d="M7885 5470 c3 -5 8 -10 11 -10 2 0 4 5 4 10 0 6 -5 10 -11 10 -5 0
-7 -4 -4 -10z"/>
<path d="M7823 5343 c-7 -2 -13 -9 -13 -14 0 -4 7 -6 15 -3 10 4 15 0 15 -12
0 -14 3 -15 12 -6 17 17 33 15 18 -3 -16 -20 -6 -19 14 1 26 25 21 45 -9 34
-16 -6 -25 -6 -25 0 0 11 -7 11 -27 3z"/>
<path d="M7746 5312 c-4 -7 0 -19 8 -28 9 -8 16 -20 16 -26 0 -6 6 -6 15 2 20
16 19 34 0 26 -10 -4 -19 2 -24 16 -5 14 -10 18 -15 10z"/>
<path d="M7920 5295 c0 -8 4 -15 8 -15 5 0 9 7 9 15 0 8 -4 15 -9 15 -4 0 -8
-7 -8 -15z"/>
<path d="M7272 5289 c2 -6 8 -10 13 -10 5 0 11 4 13 10 2 6 -4 11 -13 11 -9 0
-15 -5 -13 -11z"/>
<path d="M7230 5281 c0 -5 -8 -12 -17 -14 -14 -4 -12 -5 5 -6 13 -1 22 5 22
14 0 8 -2 15 -5 15 -3 0 -5 -4 -5 -9z"/>
<path d="M6985 5270 c-3 -5 -1 -10 4 -10 6 0 11 5 11 10 0 6 -2 10 -4 10 -3 0
-8 -4 -11 -10z"/>
<path d="M6922 5243 c2 -9 9 -18 16 -21 18 -6 15 25 -4 32 -11 4 -14 1 -12
-11z"/>
<path d="M7280 5235 c0 -8 6 -15 14 -15 8 0 16 7 20 15 4 10 -1 15 -14 15 -11
0 -20 -7 -20 -15z"/>
<path d="M7330 5243 c0 -13 29 -38 35 -31 3 3 -4 13 -15 23 -11 10 -20 13 -20
8z"/>
<path d="M7105 5230 c3 -5 8 -10 11 -10 2 0 4 5 4 10 0 6 -5 10 -11 10 -5 0
-7 -4 -4 -10z"/>
<path d="M6890 5181 c0 -5 7 -14 15 -21 16 -14 18 -10 9 14 -6 17 -24 22 -24
7z"/>
<path d="M6825 5160 c3 -5 8 -10 11 -10 2 0 4 5 4 10 0 6 -5 10 -11 10 -5 0
-7 -4 -4 -10z"/>
<path d="M6866 5136 c3 -9 11 -16 16 -16 13 0 5 23 -10 28 -7 2 -10 -2 -6 -12z"/>
<path d="M3203 3867 c2 -7 14 -14 26 -15 28 -4 20 13 -9 21 -14 3 -20 1 -17
-6z"/>
<path d="M3168 3813 c7 -3 16 -2 19 1 4 3 -2 6 -13 5 -11 0 -14 -3 -6 -6z"/>
<path d="M3150 3769 c0 -5 5 -7 10 -4 6 3 10 8 10 11 0 2 -4 4 -10 4 -5 0 -10
-5 -10 -11z"/>
<path d="M3635 3451 c-3 -5 -1 -12 5 -16 5 -3 10 1 10 9 0 18 -6 21 -15 7z"/>
<path d="M3680 3411 c0 -5 5 -13 10 -16 6 -3 10 -2 10 4 0 5 -4 13 -10 16 -5
3 -10 2 -10 -4z"/>
<path d="M3726 3377 c3 -10 9 -15 12 -12 3 3 0 11 -7 18 -10 9 -11 8 -5 -6z"/>
<path d="M3766 3335 c4 -8 8 -15 10 -15 2 0 4 7 4 15 0 8 -4 15 -10 15 -5 0
-7 -7 -4 -15z"/>
<path d="M3790 3315 c0 -8 7 -15 15 -15 9 0 12 6 9 15 -4 8 -10 15 -15 15 -5
0 -9 -7 -9 -15z"/>
<path d="M7720 2949 c0 -5 5 -7 10 -4 6 3 10 8 10 11 0 2 -4 4 -10 4 -5 0 -10
-5 -10 -11z"/>
<path d="M7665 2921 c-3 -6 3 -9 14 -8 11 0 17 5 15 9 -7 11 -22 10 -29 -1z"/>
<path d="M7670 2759 c0 -5 5 -7 10 -4 6 3 10 8 10 11 0 2 -4 4 -10 4 -5 0 -10
-5 -10 -11z"/>
<path d="M7704 2746 c-5 -12 -14 -16 -30 -12 -12 3 -26 2 -29 -4 -3 -5 3 -10
14 -10 11 0 23 -5 26 -11 4 -6 13 1 21 17 8 15 12 29 9 32 -2 3 -7 -3 -11 -12z"/>
<path d="M7735 2740 c-3 -5 1 -10 10 -10 9 0 13 5 10 10 -3 6 -8 10 -10 10 -2
0 -7 -4 -10 -10z"/>
<path d="M4360 2509 c0 -5 5 -7 10 -4 6 3 10 8 10 11 0 2 -4 4 -10 4 -5 0 -10
-5 -10 -11z"/>
<path d="M4015 2490 c3 -5 8 -10 11 -10 2 0 4 5 4 10 0 6 -5 10 -11 10 -5 0
-7 -4 -4 -10z"/>
<path d="M3912 2351 c4 -13 18 -16 19 -4 0 4 -5 9 -11 12 -7 2 -11 -2 -8 -8z"/>
<path d="M3850 2330 c0 -5 7 -7 15 -4 8 4 15 8 15 10 0 2 -7 4 -15 4 -8 0 -15
-4 -15 -10z"/>
<path d="M6530 2280 c0 -5 5 -10 10 -10 6 0 10 5 10 10 0 6 -4 10 -10 10 -5 0
-10 -4 -10 -10z"/>
<path d="M4895 2200 c-8 -13 26 -50 47 -50 29 0 21 20 -12 31 -16 6 -27 15
-24 20 3 5 3 9 0 9 -3 0 -7 -4 -11 -10z"/>
<path d="M5000 2190 c0 -5 5 -10 11 -10 5 0 7 5 4 10 -3 6 -8 10 -11 10 -2 0
-4 -4 -4 -10z"/>
<path d="M6428 2194 c-8 -13 9 -54 22 -54 13 0 12 10 -4 39 -7 13 -16 20 -18
15z"/>
<path d="M5180 2170 c0 -5 5 -10 11 -10 5 0 7 5 4 10 -3 6 -8 10 -11 10 -2 0
-4 -4 -4 -10z"/>
<path d="M5118 2153 c7 -3 16 -2 19 1 4 3 -2 6 -13 5 -11 0 -14 -3 -6 -6z"/>
<path d="M5285 2150 c3 -5 8 -10 11 -10 2 0 4 5 4 10 0 6 -5 10 -11 10 -5 0
-7 -4 -4 -10z"/>
<path d="M6492 2138 c-7 -7 -12 -23 -12 -36 0 -20 -4 -24 -23 -20 -22 4 -22 3
-13 -29 12 -37 26 -44 26 -13 0 12 7 32 16 46 16 23 17 23 31 7 10 -13 16 -14
19 -6 3 7 12 9 20 6 8 -3 14 1 14 11 0 11 -9 16 -30 16 -22 0 -28 4 -24 15 7
18 -7 20 -24 3z"/>
<path d="M4985 2130 c4 -6 11 -8 16 -5 14 9 11 15 -7 15 -8 0 -12 -5 -9 -10z"/>
<path d="M5177 2121 c-4 -17 -3 -21 5 -13 5 5 8 16 6 23 -3 8 -7 3 -11 -10z"/>
<path d="M6425 2120 c4 -6 11 -8 16 -5 14 9 11 15 -7 15 -8 0 -12 -5 -9 -10z"/>
<path d="M5140 2110 c0 -5 5 -10 10 -10 6 0 10 5 10 10 0 6 -4 10 -10 10 -5 0
-10 -4 -10 -10z"/>
<path d="M5220 2110 c-23 -7 -23 -8 -3 -9 12 -1 25 4 28 9 3 6 5 10 3 9 -2 -1
-14 -5 -28 -9z"/>
<path d="M5266 2091 c-4 -5 3 -7 14 -4 23 6 26 13 6 13 -8 0 -17 -4 -20 -9z"/>
<path d="M5328 2074 c4 -22 6 -24 14 -10 9 16 3 36 -11 36 -5 0 -6 -12 -3 -26z"/>
<path d="M6163 2076 c7 -15 14 -20 18 -14 10 15 0 38 -16 38 -10 0 -11 -5 -2
-24z"/>
<path d="M6196 2091 c-3 -5 1 -14 8 -20 16 -13 32 2 21 19 -8 12 -22 13 -29 1z"/>
<path d="M6065 2057 c-12 -13 -15 -57 -4 -57 4 0 9 7 13 15 7 21 33 19 45 -3
7 -13 20 -17 51 -15 46 2 69 13 29 13 -19 0 -21 2 -9 10 13 9 13 10 0 10 -9 0
-21 -5 -27 -11 -16 -16 -36 -1 -30 22 6 21 -9 27 -15 7 -3 -9 -9 -8 -22 5 -20
20 -18 20 -31 4z"/>
<path d="M6255 2060 c-3 -5 -1 -10 4 -10 6 0 11 5 11 10 0 6 -2 10 -4 10 -3 0
-8 -4 -11 -10z"/>
<path d="M6490 2060 c0 -5 5 -10 10 -10 6 0 10 5 10 10 0 6 -4 10 -10 10 -5 0
-10 -4 -10 -10z"/>
<path d="M6535 2060 c3 -5 13 -10 21 -10 8 0 14 5 14 10 0 6 -9 10 -21 10 -11
0 -17 -4 -14 -10z"/>
<path d="M5985 2050 c3 -5 8 -10 11 -10 2 0 4 5 4 10 0 6 -5 10 -11 10 -5 0
-7 -4 -4 -10z"/>
<path d="M5193 2005 c-27 -27 -30 -34 -17 -39 27 -10 34 -7 34 19 0 14 7 28
15 31 15 6 22 25 8 23 -5 -1 -23 -16 -40 -34z"/>
<path d="M5995 2018 c-4 -10 -4 -26 0 -35 8 -17 8 -17 12 0 3 9 3 25 0 35 -4
16 -4 16 -12 0z"/>
<path d="M5956 1992 c-3 -6 -1 -14 5 -17 14 -9 20 -2 10 14 -6 8 -11 9 -15 3z"/>
<path d="M6086 1985 c4 -8 10 -12 15 -9 11 6 2 24 -11 24 -5 0 -7 -7 -4 -15z"/>
<path d="M6050 1940 c0 -5 7 -10 16 -10 8 0 12 5 9 10 -3 6 -10 10 -16 10 -5
0 -9 -4 -9 -10z"/>
<path d="M6090 1935 c0 -8 5 -15 10 -15 6 0 10 7 10 15 0 8 -4 15 -10 15 -5 0
-10 -7 -10 -15z"/>
<path d="M5827 1926 c-3 -8 -2 -18 4 -22 16 -9 22 2 11 21 -8 15 -10 16 -15 1z"/>
<path d="M5546 1901 c-7 -11 22 -23 35 -15 5 3 7 10 4 15 -8 12 -32 12 -39 0z"/>
<path d="M5373 1846 c6 -14 3 -17 -9 -12 -12 4 -15 2 -11 -9 4 -8 2 -17 -3
-20 -16 -10 -11 -25 8 -25 14 0 15 2 2 10 -12 8 -11 10 8 10 17 0 22 6 22 24
0 14 -5 28 -12 32 -8 5 -9 2 -5 -10z"/>
<path d="M5557 1843 c-3 -5 -2 -15 2 -22 10 -16 84 -4 78 13 -4 13 -73 21 -80
9z"/>
<path d="M5493 1828 c2 -7 0 -21 -5 -30 -10 -21 6 -25 19 -5 14 23 13 47 -3
47 -9 0 -14 -6 -11 -12z"/>
<path d="M5150 1783 c0 -14 3 -23 7 -19 10 10 11 46 1 46 -4 0 -8 -12 -8 -27z"/>
<path d="M5210 1712 c0 -5 7 -15 15 -22 8 -7 15 -8 15 -2 0 5 -7 15 -15 22 -8
7 -15 8 -15 2z"/>
<path d="M5180 1676 c0 -9 7 -16 16 -16 17 0 14 22 -4 28 -7 2 -12 -3 -12 -12z"/>
<path d="M4950 1630 c0 -5 5 -10 10 -10 6 0 10 5 10 10 0 6 -4 10 -10 10 -5 0
-10 -4 -10 -10z"/>
<path d="M5156 1623 c-3 -7 -1 -13 4 -13 6 0 10 -9 10 -20 0 -34 17 -22 18 13
1 34 -21 48 -32 20z"/>
<path d="M5114 1585 c21 -16 32 -13 21 4 -3 6 -14 11 -23 11 -15 -1 -15 -2 2
-15z"/>
</g>
</svg>
